<svg width="25" height="24" viewBox="0 0 25 24" fill="none" xmlns="http://www.w3.org/2000/svg">
<path d="M12.3335 1.875C10.331 1.875 8.3734 2.46882 6.70835 3.58137C5.0433 4.69392 3.74556 6.27523 2.97922 8.12533C2.21288 9.97543 2.01237 12.0112 2.40305 13.9753C2.79373 15.9393 3.75804 17.7435 5.17404 19.1595C6.59005 20.5755 8.39415 21.5398 10.3582 21.9305C12.3223 22.3211 14.3581 22.1206 16.2082 21.3543C18.0583 20.5879 19.6396 19.2902 20.7521 17.6251C21.8647 15.9601 22.4585 14.0025 22.4585 12C22.4555 9.3156 21.3878 6.74199 19.4897 4.84383C17.5915 2.94567 15.0179 1.87798 12.3335 1.875ZM13.4585 19.7934V14.625H15.3335C15.6319 14.625 15.918 14.5065 16.129 14.2955C16.34 14.0845 16.4585 13.7984 16.4585 13.5C16.4585 13.2016 16.34 12.9155 16.129 12.7045C15.918 12.4935 15.6319 12.375 15.3335 12.375H13.4585V10.5C13.4585 10.2016 13.577 9.91548 13.788 9.7045C13.999 9.49353 14.2851 9.375 14.5835 9.375H16.0835C16.3819 9.375 16.668 9.25647 16.879 9.0455C17.09 8.83452 17.2085 8.54837 17.2085 8.25C17.2085 7.95163 17.09 7.66548 16.879 7.4545C16.668 7.24353 16.3819 7.125 16.0835 7.125H14.5835C13.6884 7.125 12.83 7.48058 12.197 8.11351C11.5641 8.74645 11.2085 9.60489 11.2085 10.5V12.375H9.3335C9.03513 12.375 8.74898 12.4935 8.538 12.7045C8.32703 12.9155 8.2085 13.2016 8.2085 13.5C8.2085 13.7984 8.32703 14.0845 8.538 14.2955C8.74898 14.5065 9.03513 14.625 9.3335 14.625H11.2085V19.7934C9.23796 19.509 7.4483 18.4888 6.19967 16.938C4.95104 15.3873 4.33614 13.4211 4.47872 11.4353C4.6213 9.44942 5.51077 7.59128 6.96812 6.23481C8.42548 4.87833 10.3425 4.12421 12.3335 4.12421C14.3245 4.12421 16.2415 4.87833 17.6989 6.23481C19.1562 7.59128 20.0457 9.44942 20.1883 11.4353C20.3309 13.4211 19.716 15.3873 18.4673 16.938C17.2187 18.4888 15.429 19.509 13.4585 19.7934Z" fill="white"/>
</svg>
