<svg width="25" height="24" viewBox="0 0 25 24" fill="none" xmlns="http://www.w3.org/2000/svg">
<path d="M20.5835 1.875H4.0835C3.58622 1.875 3.1093 2.07254 2.75767 2.42417C2.40604 2.77581 2.2085 3.25272 2.2085 3.75V20.25C2.2085 20.7473 2.40604 21.2242 2.75767 21.5758C3.1093 21.9275 3.58622 22.125 4.0835 22.125H20.5835C21.0808 22.125 21.5577 21.9275 21.9093 21.5758C22.261 21.2242 22.4585 20.7473 22.4585 20.25V3.75C22.4585 3.25272 22.261 2.77581 21.9093 2.42417C21.5577 2.07254 21.0808 1.875 20.5835 1.875ZM20.2085 19.875H4.4585V4.125H20.2085V19.875ZM10.8335 16.5V11.25C10.8337 11.0162 10.9068 10.7883 11.0425 10.5979C11.1782 10.4076 11.3699 10.2642 11.5909 10.1878C11.8118 10.1114 12.0511 10.1058 12.2754 10.1716C12.4997 10.2375 12.698 10.3716 12.8426 10.5553C13.414 10.2558 14.053 10.1088 14.6978 10.1284C15.3427 10.1481 15.9715 10.3338 16.5236 10.6676C17.0757 11.0014 17.5324 11.472 17.8494 12.0338C18.1665 12.5957 18.3332 13.2299 18.3335 13.875V16.5C18.3335 16.7984 18.215 17.0845 18.004 17.2955C17.793 17.5065 17.5069 17.625 17.2085 17.625C16.9101 17.625 16.624 17.5065 16.413 17.2955C16.202 17.0845 16.0835 16.7984 16.0835 16.5V13.875C16.0835 13.4772 15.9255 13.0956 15.6442 12.8143C15.3629 12.533 14.9813 12.375 14.5835 12.375C14.1857 12.375 13.8041 12.533 13.5228 12.8143C13.2415 13.0956 13.0835 13.4772 13.0835 13.875V16.5C13.0835 16.7984 12.965 17.0845 12.754 17.2955C12.543 17.5065 12.2569 17.625 11.9585 17.625C11.6601 17.625 11.374 17.5065 11.163 17.2955C10.952 17.0845 10.8335 16.7984 10.8335 16.5ZM9.3335 11.25V16.5C9.3335 16.7984 9.21497 17.0845 9.00399 17.2955C8.79301 17.5065 8.50686 17.625 8.2085 17.625C7.91013 17.625 7.62398 17.5065 7.413 17.2955C7.20202 17.0845 7.0835 16.7984 7.0835 16.5V11.25C7.0835 10.9516 7.20202 10.6655 7.413 10.4545C7.62398 10.2435 7.91013 10.125 8.2085 10.125C8.50686 10.125 8.79301 10.2435 9.00399 10.4545C9.21497 10.6655 9.3335 10.9516 9.3335 11.25ZM6.7085 7.5C6.7085 7.20333 6.79647 6.91332 6.96129 6.66665C7.12611 6.41997 7.36038 6.22771 7.63447 6.11418C7.90856 6.00065 8.21016 5.97094 8.50113 6.02882C8.7921 6.0867 9.05938 6.22956 9.26916 6.43934C9.47893 6.64912 9.6218 6.91639 9.67967 7.20736C9.73755 7.49834 9.70785 7.79994 9.59432 8.07403C9.48078 8.34811 9.28853 8.58238 9.04185 8.7472C8.79518 8.91203 8.50517 9 8.2085 9C7.81067 9 7.42914 8.84196 7.14784 8.56066C6.86653 8.27936 6.7085 7.89782 6.7085 7.5Z" fill="white"/>
</svg>
